<svg xmlns="http://www.w3.org/2000/svg" viewBox="0 0 1024 1024" width="1024" height="1024">
  <!-- Android adaptive icon foreground — transparent background -->
  <defs>
    <linearGradient id="heartGrad" x1="0%" y1="0%" x2="100%" y2="100%">
      <stop offset="0%" style="stop-color:#1A7FE8;stop-opacity:1" />
      <stop offset="100%" style="stop-color:#0EC4C4;stop-opacity:1" />
    </linearGradient>
  </defs>

  <!-- Heart in brand gradient -->
  <path d="
    M512 750
    C500 738 270 590 200 420
    C168 340 175 230 260 185
    C310 160 375 168 420 200
    C455 224 485 260 512 295
    C539 260 569 224 604 200
    C649 168 714 160 764 185
    C849 230 856 340 824 420
    C754 590 524 738 512 750 Z
  "
  fill="url(#heartGrad)"
  />

  <!-- ECG white pulse line inside heart -->
  <polyline
    points="280,460  345,460  378,390  415,545  450,335  488,520  520,460  744,460"
    fill="none"
    stroke="white"
    stroke-width="32"
    stroke-linecap="round"
    stroke-linejoin="round"
  />
</svg>
